<svg xmlns="http://www.w3.org/2000/svg" width="381.39" height="379.98" viewBox="0 0 381.39 379.98">
  <defs>
    <style>
      .cls-1 {
        fill: #0866fe;
      }
    </style>
  </defs>
  <g id="Layer_2" data-name="Layer 2">
    <g id="Layer_1-2" data-name="Layer 1">
      <path class="cls-1" d="M213.92,314.38c0-20.49.06-41-.08-61.47,0-3,.82-3.68,3.71-3.65,14.87.14,29.74,0,44.6.15,2.76,0,3.62-.93,4.06-3.38q4.77-26.58,9.72-53.14c.54-2.89-1.45-2-2.67-2-18.49-.05-37-.1-55.47,0-3,0-4.07-.51-4-3.79.41-11.45-.53-22.93,2-34.29,3-13.16,11.15-20.7,24.08-23.4,12-2.51,24.1-1.84,36.17-1.1,2.65.16,3.13-.45,3.12-2.86q-.14-23.61,0-47.23c0-2.4-.8-3.18-3-3.63A192.49,192.49,0,0,0,226.38,71c-17.67,1.07-34.71,4.66-49.69,15s-23.38,25.12-27.92,42.35-4.41,34.8-4.42,52.38c0,3.23,1.09,7.54-.54,9.41-1.91,2.2-6.34.67-9.66.71q-13.11.16-26.24,0c-2.09,0-2.75.52-2.74,2.69q.14,26.61,0,53.23c0,2.24.82,2.64,2.82,2.62,11-.08,22,.08,33-.11,2.9-.05,3.45.85,3.45,3.56q-.13,59.61,0,119.2c0,3.44-.84,3.69-4,2.82-40.17-11.09-73.2-33.09-99.17-65.48A185.52,185.52,0,0,1,4.05,229.84C-15.36,136,36.62,44.56,124.82,11.8a182.54,182.54,0,0,1,90.23-10c63.39,9,111.06,41.66,142.66,97.15C377,132.77,384,169.54,380.54,208.25,376.79,250,360.87,286.67,333,317.8c-28.71,32-64.38,52.34-106.77,60.5-3.06.59-6.17.91-9.22,1.54-2.54.52-3.13-.4-3.12-2.86C214,356.11,213.92,335.25,213.92,314.38Z"/>
    </g>
  </g>
</svg>
