<svg xmlns="http://www.w3.org/2000/svg" width="802.39" height="559.34" viewBox="0 0 802.39 559.34">
  <g id="Layer_2" data-name="Layer 2">
    <g id="Layer_1-2" data-name="Layer 1">
      <g>
        <path d="M740.45,203.18c6.41-6,13.15-10.09,21.63-10.24,9.27-.17,16.21,5.35,18.83,14.79,3.07,11.06.59,19.08-7.94,23.87a67.22,67.22,0,0,1-12,4.85c-3.94,1.29-8,2.07-12.42,3.17-.26,5.18-.18,10.48-.85,15.68-3,23.61-14,43.59-29.17,61.35-19.88,23.2-43.71,41.07-74.25,46.66-25,4.57-50.43,6.75-75.73,9.51-12.87,1.4-25.86,1.74-39.11,2.58v62.27c2-1.8,4.06-3.61,6.06-5.48,25.38-23.64,67.84-18.86,88.44,10,19.49,27.29,17.71,70.62-3.79,96.12-22.9,27.16-67.46,27.94-89,1.35-.31-.38-.71-.69-1.69-1.62V556.4H494.9V376.08c-4.42-.71-8.5-1.18-12.5-2-9.79-2.13-17-12.17-15.66-22a7.66,7.66,0,0,1,2.28-3.65c11.19-11.71,24.81-13.77,40-10.17,11.46,2.72,23,5.16,34.49,7.65A20.88,20.88,0,0,0,548,346c15.18,0,21.29-5.73,22.27-21,.66-10.3,1-20.63,1.69-30.92,2.3-34.39,25.91-54.49,53.11-61.79,17.27-4.63,34.5-4.6,51.7,1A41.49,41.49,0,0,0,691,235.1c6.33-.26,9.07-5.77,4.9-10.47a40.59,40.59,0,0,0-14.16-10.43c-14.37-6-29.61-6-44.77-3.72-26.75,4.07-50,14.8-67.17,36.56-10,12.63-15.25,27.11-16.68,43.14-1,11.08-2.55,22.11-3.77,33.18-.43,3.87-2.66,4.78-6.18,4.58-9-.5-16.16-4.55-19.36-12.72-3.11-7.93-5.65-16.51-6.2-25-5.2-79.75,54.25-127.86,109.59-138,44.48-8.19,86.55,10.17,111.32,48.18C739,201.21,739.6,202,740.45,203.18ZM602.19,487.77c-.43-3.63-.66-7.3-1.34-10.88-2.8-14.7-15.12-26.71-29.52-28.94-14.7-2.27-29,4.82-36.54,18.05-5.89,10.35-6.71,21.37-4.5,32.84,3.67,19.08,21.91,32.36,40.25,29.24C589.64,524.83,601.94,509.05,602.19,487.77Z"/>
        <path d="M640.64,47.62a90.76,90.76,0,0,1-11.15,45.15c-13.79,25.52-34.4,44.18-60.61,55.9-9.26,4.14-20.26,4.8-30.59,6.08-17,2.1-34.1,3.42-51.16,5.08-.74.07-1.47.33-3.52.8,7.13,3.23,13.21,5.68,19,8.7,6.92,3.61,13.71,7.51,20.31,11.68,2.74,1.73,5,4.37,7.19,6.82s1.89,4.64-.62,7.24c-20.72,21.5-30.41,47.2-28.75,77.1.43,7.64-1,9.29-8.65,9.12-25.24-.57-46.34-10-62-30.17-10-12.88-11.89-27.2-5.6-42.38,7-16.94,18.33-31,31.18-43.63A528,528,0,0,1,623.34,53.23C628.66,51,634.34,49.64,640.64,47.62ZM473.56,200.54c-6.49,0-11.57-.1-16.65,0-4.32.11-7.39,2.32-8.19,6.59a8.74,8.74,0,0,0,4.53,9.7,7.69,7.69,0,0,0,10.35-1.81C467,210.9,469.74,206.19,473.56,200.54Z"/>
        <path d="M361.07,538.29V556.5h-34V373.87h34.05v63.82c2.31-2,4.47-3.73,6.45-5.65,23.07-22.43,70.09-20.89,91.5,14.84,15.13,25.26,13.19,65.6-4.81,88.89-23.64,30.59-70.39,30.54-91.57,3.33C362.54,538.88,362.16,538.82,361.07,538.29Zm72.87-50.88c-.17-2-.32-5-.68-7.94a35.71,35.71,0,0,0-53.76-26.7c-14.43,8.51-21.56,27.8-17.16,46.44,5.38,22.81,27.57,35.34,48.17,26.65C426.79,519,433.36,505.45,433.94,487.41Z"/>
        <path d="M87.84,486.81c13.74,23.32,27.23,46.2,41.25,70-10.52,0-20.14-.61-29.64.19-7.93.67-12-2.2-15.72-9.13C74,529.47,63.26,511.62,53.11,493.46c-1.77-3.18-3.73-4.62-7.42-4.27s-7.27.07-11.33.07V556.4H.29V384.2a14.53,14.53,0,0,1,2.28-.34c22.82,0,45.66-.35,68.48.22,17,.42,32.42,6,44,19.22,23,26.34,12.26,68.76-20.43,81.09C92.61,485.15,90.57,485.84,87.84,486.81Zm-53.4-23.25C47.8,463,61,463.4,73.89,461.75c11.16-1.42,17.37-11.16,17.58-23.88.2-12.48-5.75-21-16.86-23.94a35.32,35.32,0,0,0-8.34-1.28c-10.57-.14-21.14,0-31.83,0Z"/>
        <path d="M257.74,438.14V419.2H282c10.7,0,10.7,0,10.7,10.69q0,60.21,0,120.42v6.19H257.78V537.71c-4.3,4-7.65,7.69-11.62,10.57-29.06,21.06-70.47,11.15-87.38-22-14-27.52-13.5-55.77,3.21-82.3,20-31.75,66.18-35.95,92.26-9.05C255.12,435.77,256.07,436.58,257.74,438.14ZM184.8,487.76c.46,3.62.68,7.28,1.42,10.84,3.42,16.66,16.43,28.39,33,30,14.51,1.4,29.39-8.1,35.28-22.75,3.42-8.54,3.89-17.44,2.53-26.49-3.36-22.42-24.25-36.3-45.76-30.38C195.46,453.33,185.15,468.6,184.8,487.76Z"/>
        <path d="M410.3,327H384.22V313.58c-.87.27-1.47.27-1.66.56-14.36,20.59-54.67,22.66-72.56-8.55-12.68-22.15-9-54.53,8.31-70.95,18.12-17.21,45.49-16.82,63.36.89.47.46,1,.87,2.42,2.11V189.38H410.3Zm-26.07-51.37c0-12.33-5.16-22.09-14.45-27.16A27,27,0,0,0,330.14,268c-2.54,16.47,3.87,30.85,16,35.85C365.46,311.87,384.17,298,384.23,275.65Z"/>
        <path d="M802.39,527.56v29.77c-12.13-.61-24.07-.12-35.61-2-18.27-3-28.92-15.9-29.47-35-.65-22.14-.29-44.32-.36-66.49v-5.92H720.72c0-9-.12-17.44.16-25.88,0-1,2.2-2.57,3.48-2.69,3.95-.35,7.95-.13,12.43-.13V386.14h35v32.92h30.49v28.63h-30c-.13,2.16-.3,3.76-.3,5.37q0,29.74,0,59.5c0,11.61,3.31,14.92,14.83,15C791.91,527.59,797,527.56,802.39,527.56Z"/>
        <path d="M264.94,238.05V224.21h26V327.06H265.11V314.14c-.82-.06-1.29-.22-1.42-.08-12.44,14.05-28.05,18.17-45.69,13.32-17.84-4.91-28.17-17.81-32.63-35.24-4.42-17.26-2.86-34.05,6.89-49.45,15.61-24.68,51.86-27.8,70.27-6.86C263,236.31,263.48,236.71,264.94,238.05Zm-54.76,40.53c.4,9.07,4.34,19.76,16.42,25.11,16.49,7.31,34.13-2.52,37.55-20.37s-5.18-34-19.94-37.34C225.42,241.71,210.17,254.82,210.18,278.58Z"/>
        <path d="M99.28,283.67a23.75,23.75,0,0,0,16.86,22.84c10.54,3.13,20.94,0,26.58-8.58a6.12,6.12,0,0,1,6-3.15c7.64.14,15.3.05,23.57.05-1.26,6.9-4.65,12.32-8.87,17.09-15.17,17.15-34.44,20.75-55.52,14.84-20.08-5.63-31.35-20-34.76-40.3C70.24,269,73,252.61,84.82,238.64c12.93-15.32,37.67-20.88,58.77-13.38,19.27,6.85,31.28,24,31.64,45.24.23,13.17.23,13.17-12.62,13.17H99.28Zm.06-17.74h48.6c.18-11.78-8.79-21-20.75-22C111.47,242.67,101.91,250,99.34,265.93Z"/>
        <path d="M662.94,419.52H697v137H662.94Z"/>
        <path d="M577,0c3,13.32,5.32,26.22,2.7,39.43A32.47,32.47,0,0,1,568,58.74q-44.26,35.42-88.77,70.51l-1.12-1c2.29-4.69,4.65-9.34,6.88-14,11.74-24.84,23.37-49.75,40.18-71.74C537.57,26.27,552,12.4,570.36,3.06,572.4,2,574.52,1.14,577,0Z"/>
        <path d="M0,326.86V197.22H25.75V306.6h43v20.26Z"/>
        <path d="M680,403c-12.25-.09-21.14-8.79-21-20.54s9.14-20.15,21.47-20.16c12,0,21.1,8.91,21,20.65C701.42,394.52,692.26,403.07,680,403Z"/>
      </g>
    </g>
  </g>
</svg>
